<svg width="366" height="114" viewBox="0 0 366 114" fill="none" xmlns="http://www.w3.org/2000/svg">
<path d="M0 63.6875C0 56.2708 1.04167 49.5 3.125 43.375C5.25 37.25 8.22917 31.9792 12.0625 27.5625C15.9375 23.1458 20.5833 19.7292 26 17.3125C31.4583 14.8542 37.5 13.625 44.125 13.625C51.125 13.625 57.2917 14.8542 62.625 17.3125C68 19.7292 72.5 23.1458 76.125 27.5625C79.7917 31.9792 82.5625 37.25 84.4375 43.375C86.3125 49.5 87.25 56.2708 87.25 63.6875C87.25 70.7292 86.2292 77.3125 84.1875 83.4375C82.1458 89.5208 79.2292 94.8125 75.4375 99.3125C71.6458 103.812 67.0625 107.354 61.6875 109.938C56.3125 112.521 50.2917 113.812 43.625 113.812C39.2083 113.812 35.0625 113.229 31.1875 112.062C27.3125 110.896 23.75 109.229 20.5 107.062C17.2917 104.896 14.4167 102.312 11.875 99.3125C9.33333 96.2708 7.16667 92.8958 5.375 89.1875C3.625 85.4792 2.29167 81.4792 1.375 77.1875C0.458333 72.8958 0 68.3958 0 63.6875ZM14.25 63.6875C14.25 66.8125 14.5417 69.9167 15.125 73C15.7083 76.0417 16.5625 78.9583 17.6875 81.75C18.8542 84.5 20.2708 87.0625 21.9375 89.4375C23.6458 91.7708 25.5833 93.8125 27.75 95.5625C29.9583 97.2708 32.3958 98.625 35.0625 99.625C37.7708 100.583 40.6875 101.062 43.8125 101.062C47.1042 101.062 50.1042 100.583 52.8125 99.625C55.5208 98.625 57.9583 97.2708 60.125 95.5625C62.2917 93.8125 64.1667 91.7708 65.75 89.4375C67.375 87.0625 68.7083 84.5 69.75 81.75C70.8333 78.9583 71.625 76.0417 72.125 73C72.6667 69.9167 72.9375 66.8125 72.9375 63.6875C72.9375 58.6875 72.3542 53.9583 71.1875 49.5C70.0208 45 68.2292 41.0417 65.8125 37.625C63.4375 34.2083 60.4167 31.5 56.75 29.5C53.125 27.5 48.8125 26.5 43.8125 26.5C39.1042 26.5 34.9167 27.3958 31.25 29.1875C27.5833 30.9792 24.4792 33.5 21.9375 36.75C19.4375 40 17.5208 43.9167 16.1875 48.5C14.8958 53.0417 14.25 58.1042 14.25 63.6875ZM105.785 106.438C105.785 104.979 105.806 103.521 105.848 102.062C105.889 100.604 105.931 99 105.973 97.25V49.0625C105.973 47.8958 105.848 46.7292 105.598 45.5625C105.348 44.3542 105.223 43.1042 105.223 41.8125C105.223 39.6042 106.014 37.9167 107.598 36.75C109.181 35.5833 111.327 35 114.035 35C115.202 35 116.223 35.2083 117.098 35.625C117.973 36 118.702 36.5 119.285 37.125C119.868 37.75 120.306 38.4583 120.598 39.25C120.889 40.0417 121.035 40.8542 121.035 41.6875C121.035 42.3958 120.973 43.125 120.848 43.875C120.764 44.5833 120.66 45.2917 120.535 46C126.91 44.4167 132.327 42.9792 136.785 41.6875C141.285 40.3958 144.806 39.3333 147.348 38.5C147.889 37.5417 148.639 36.7292 149.598 36.0625C150.598 35.3542 151.889 35 153.473 35C155.764 35 157.577 35.6042 158.91 36.8125C160.285 37.9792 160.973 39.4583 160.973 41.25C160.973 41.9583 160.931 42.6875 160.848 43.4375C160.764 44.1875 160.723 44.9375 160.723 45.6875C160.473 48.2292 160.41 50.8125 160.535 53.4375C160.702 56.0625 160.889 58.7083 161.098 61.375C161.181 62.2083 161.223 63.1042 161.223 64.0625C161.264 64.9792 161.285 65.9167 161.285 66.875C161.285 67.875 161.035 68.7083 160.535 69.375C160.035 70.0417 159.389 70.5833 158.598 71C157.848 71.375 157.014 71.6458 156.098 71.8125C155.181 71.9792 154.285 72.0625 153.41 72.0625C152.16 72.0625 151.118 71.8542 150.285 71.4375C149.452 70.9792 148.764 70.4167 148.223 69.75C147.723 69.0417 147.348 68.2708 147.098 67.4375C146.889 66.5625 146.785 65.7083 146.785 64.875C146.785 62.9583 146.806 61.0208 146.848 59.0625C146.889 57.0625 146.931 54.875 146.973 52.5C145.389 52.875 143.202 53.375 140.41 54C137.66 54.625 134.639 55.2917 131.348 56C129.473 56.4583 127.618 56.8958 125.785 57.3125C123.952 57.6875 122.098 58.0833 120.223 58.5V99.3125L122.098 98.75C122.931 98.4583 123.723 98.2083 124.473 98C125.223 97.75 126.077 97.5833 127.035 97.5C127.827 97.5833 128.598 97.7708 129.348 98.0625C130.139 98.3542 130.827 98.7708 131.41 99.3125C132.035 99.8542 132.535 100.542 132.91 101.375C133.285 102.167 133.473 103.083 133.473 104.125C133.473 105.083 133.306 106 132.973 106.875C132.681 107.75 132.264 108.542 131.723 109.25C131.181 109.917 130.535 110.479 129.785 110.938C129.077 111.354 128.285 111.583 127.41 111.625C126.827 111.708 126.035 111.833 125.035 112C124.035 112.208 122.868 112.438 121.535 112.688C119.41 113.104 117.681 113.396 116.348 113.562C115.056 113.729 113.973 113.812 113.098 113.812C112.139 113.812 111.202 113.646 110.285 113.312C109.41 113.021 108.639 112.562 107.973 111.938C107.306 111.312 106.764 110.542 106.348 109.625C105.973 108.708 105.785 107.646 105.785 106.438ZM179.195 107.938C179.195 106.271 179.195 104.354 179.195 102.188C179.195 99.9792 179.174 97.6458 179.133 95.1875C179.091 91.3958 179.07 87.3333 179.07 83C179.07 78.625 179.07 74.125 179.07 69.5C179.112 64.875 179.133 60.1667 179.133 55.375C179.174 50.5417 179.195 45.75 179.195 41C179.195 36.25 179.153 31.6042 179.07 27.0625C179.028 22.4792 178.945 18.1042 178.82 13.9375C178.07 13.8958 177.299 13.9583 176.508 14.125C175.716 14.25 174.799 14.3125 173.758 14.3125C173.008 14.3125 172.258 14.1875 171.508 13.9375C170.799 13.6875 170.153 13.2917 169.57 12.75C169.028 12.1667 168.591 11.4375 168.258 10.5625C167.924 9.6875 167.758 8.625 167.758 7.375C167.758 5.16667 168.32 3.5 169.445 2.375C170.612 1.20833 172.028 0.625 173.695 0.625C174.362 0.625 175.008 0.708333 175.633 0.875C176.258 1.04167 176.924 1.125 177.633 1.125C179.299 1.125 180.945 1.04167 182.57 0.875C184.237 0.708333 186.008 0.625 187.883 0.625C189.591 0.625 191.008 1.20833 192.133 2.375C193.258 3.5 193.82 5.0625 193.82 7.0625C193.82 9.77083 193.799 12.7292 193.758 15.9375C193.716 19.1042 193.653 22.3542 193.57 25.6875C193.528 29.0208 193.487 32.3333 193.445 35.625C193.403 38.875 193.362 41.9167 193.32 44.75C194.695 43.2917 196.278 41.9792 198.07 40.8125C199.862 39.6042 201.82 38.5833 203.945 37.75C206.07 36.875 208.299 36.2083 210.633 35.75C212.966 35.25 215.362 35 217.82 35C223.362 35 228.424 35.9167 233.008 37.75C237.633 39.5833 241.591 42.2083 244.883 45.625C248.174 49 250.716 53.1042 252.508 57.9375C254.341 62.7292 255.258 68.0833 255.258 74C255.258 80.5417 254.258 86.2917 252.258 91.25C250.299 96.2083 247.549 100.375 244.008 103.75C240.466 107.083 236.237 109.604 231.32 111.312C226.445 112.979 221.07 113.812 215.195 113.812C213.028 113.812 210.883 113.604 208.758 113.188C206.633 112.771 204.591 112.188 202.633 111.438C200.674 110.646 198.841 109.729 197.133 108.688C195.424 107.646 193.903 106.5 192.57 105.25V107.875C192.57 108.958 192.32 109.854 191.82 110.562C191.32 111.271 190.695 111.833 189.945 112.25C189.195 112.667 188.362 112.938 187.445 113.062C186.57 113.229 185.737 113.312 184.945 113.312C183.153 113.312 181.737 112.958 180.695 112.25C179.695 111.583 179.195 110.146 179.195 107.938ZM192.008 74.875C192.008 78.8333 192.633 82.3958 193.883 85.5625C195.174 88.6875 196.883 91.3542 199.008 93.5625C201.133 95.7292 203.549 97.4167 206.258 98.625C209.008 99.7917 211.841 100.375 214.758 100.375C218.383 100.375 221.737 99.875 224.82 98.875C227.945 97.875 230.653 96.3125 232.945 94.1875C235.237 92.0625 237.028 89.3542 238.32 86.0625C239.612 82.7292 240.258 78.7708 240.258 74.1875C240.258 70.2292 239.695 66.6667 238.57 63.5C237.487 60.3333 235.903 57.6458 233.82 55.4375C231.737 53.1875 229.216 51.4792 226.258 50.3125C223.299 49.1042 219.945 48.5 216.195 48.5C213.028 48.5 209.987 49.1667 207.07 50.5C204.153 51.7917 201.57 53.625 199.32 56C197.112 58.3333 195.341 61.125 194.008 64.375C192.674 67.5833 192.008 71.0833 192.008 74.875ZM288.73 25.875C287.73 26.3333 286.688 26.5625 285.605 26.5625C284.522 26.5208 283.522 26.2917 282.605 25.875C281.73 25.4167 280.959 24.7708 280.293 23.9375C279.626 23.1042 279.209 22.1042 279.043 20.9375C278.918 20.1458 278.938 19.25 279.105 18.25C279.313 17.2083 279.563 16.1667 279.855 15.125C280.188 14.0417 280.48 13 280.73 12C281.022 10.9583 281.209 10.0208 281.293 9.1875C281.418 7.3125 281.98 5.75 282.98 4.5C283.98 3.25 285.48 2.47917 287.48 2.1875C288.938 1.9375 290.313 2.02083 291.605 2.4375C292.897 2.85417 293.855 3.77083 294.48 5.1875C294.688 5.64583 294.855 6.1875 294.98 6.8125C295.147 7.39583 295.272 7.91667 295.355 8.375C295.397 8.79167 295.376 9.3125 295.293 9.9375C295.251 10.5625 295.147 11.2292 294.98 11.9375C294.813 12.6042 294.605 13.2917 294.355 14C294.147 14.6667 293.938 15.25 293.73 15.75C293.397 16.4583 293.168 17.2292 293.043 18.0625C292.959 18.8542 292.855 19.5833 292.73 20.25C292.605 20.9167 292.48 21.5208 292.355 22.0625C292.23 22.6042 292.022 23.1042 291.73 23.5625C291.48 24.0208 291.105 24.4375 290.605 24.8125C290.147 25.1875 289.522 25.5417 288.73 25.875ZM278.043 107.312C278.043 106.271 278.084 105.396 278.168 104.688C278.293 103.979 278.397 103.208 278.48 102.375C278.605 101.5 278.709 100.479 278.793 99.3125C278.918 98.1458 278.98 96.5625 278.98 94.5625C278.98 87.1042 278.959 79.7083 278.918 72.375C278.876 65 278.772 57.2083 278.605 49C277.98 49.0417 277.272 49.0833 276.48 49.125C275.688 49.1667 274.855 49.2083 273.98 49.25C273.147 49.25 272.334 49.2708 271.543 49.3125C270.751 49.3125 270.043 49.3125 269.418 49.3125C268.668 49.3125 267.897 49.2083 267.105 49C266.355 48.75 265.668 48.3542 265.043 47.8125C264.418 47.2708 263.897 46.5833 263.48 45.75C263.063 44.875 262.855 43.8125 262.855 42.5625C262.855 40.3542 263.438 38.6875 264.605 37.5625C265.813 36.3958 267.23 35.8125 268.855 35.8125C270.438 35.8125 272.001 35.8958 273.543 36.0625C275.126 36.1875 276.668 36.25 278.168 36.25C279.709 36.25 281.251 36.1875 282.793 36.0625C284.334 35.8958 285.793 35.8125 287.168 35.8125C289.293 35.8125 290.813 36.375 291.73 37.5C292.647 38.625 293.105 40.1875 293.105 42.1875C293.105 43.8958 292.959 45.5833 292.668 47.25C292.376 48.875 292.23 50.625 292.23 52.5C292.23 56.25 292.209 60.0208 292.168 63.8125C292.126 67.6042 292.084 71.4583 292.043 75.375C292.043 79.2917 292.022 83.2917 291.98 87.375C291.98 91.4583 292.022 95.6667 292.105 100C292.772 99.9583 293.376 99.8542 293.918 99.6875C294.459 99.5208 294.98 99.3542 295.48 99.1875C295.98 98.9792 296.501 98.8125 297.043 98.6875C297.626 98.5208 298.272 98.4375 298.98 98.4375C300.063 98.4375 300.938 98.5625 301.605 98.8125C302.313 99.0625 302.876 99.4167 303.293 99.875C303.709 100.292 304.022 100.833 304.23 101.5C304.438 102.125 304.626 102.812 304.793 103.562C305.084 105.521 304.605 107.083 303.355 108.25C302.105 109.417 300.397 110.333 298.23 111C296.98 111.333 295.688 111.667 294.355 112C293.063 112.333 291.834 112.625 290.668 112.875C289.501 113.167 288.438 113.396 287.48 113.562C286.522 113.729 285.772 113.812 285.23 113.812C282.772 113.812 280.959 113.229 279.793 112.062C278.626 110.938 278.043 109.354 278.043 107.312ZM324.703 93.875L324.328 49.8125L316.765 49.875C315.807 49.875 314.973 49.6875 314.265 49.3125C313.557 48.8958 312.953 48.3542 312.453 47.6875C311.994 46.9792 311.64 46.1875 311.39 45.3125C311.14 44.4375 311.015 43.5208 311.015 42.5625C311.015 40.9375 311.203 39.7083 311.578 38.875C311.994 38 312.578 37.375 313.328 37C314.078 36.5833 314.994 36.3542 316.078 36.3125C317.161 36.2292 318.411 36.1875 319.828 36.1875H324.265V33.875C324.265 32.3333 324.244 31.0833 324.203 30.125C324.203 29.1667 324.203 28.5208 324.203 28.1875C324.203 26.9792 324.078 25.7708 323.828 24.5625C323.619 23.3542 323.515 22.125 323.515 20.875C323.515 19.8333 323.64 18.9167 323.89 18.125C324.14 17.3333 324.557 16.6667 325.14 16.125C325.765 15.5417 326.578 15.1042 327.578 14.8125C328.578 14.5208 329.807 14.375 331.265 14.375C332.265 14.375 333.203 14.4583 334.078 14.625C334.994 14.7917 335.786 15.125 336.453 15.625C337.161 16.0833 337.723 16.7292 338.14 17.5625C338.557 18.3958 338.765 19.4792 338.765 20.8125C338.765 22.6042 338.598 24.375 338.265 26.125C337.973 27.875 337.848 29.6875 337.89 31.5625V36.125C341.14 36.0417 343.661 35.9792 345.453 35.9375C347.286 35.8958 348.765 35.8542 349.89 35.8125C350.057 35.8125 350.203 35.8125 350.328 35.8125C350.494 35.7708 350.64 35.75 350.765 35.75C351.265 35.7083 351.828 35.6875 352.453 35.6875C353.078 35.6875 353.578 35.6875 353.953 35.6875C354.744 35.6875 355.515 35.8125 356.265 36.0625C357.015 36.3125 357.661 36.7292 358.203 37.3125C358.786 37.8958 359.244 38.6458 359.578 39.5625C359.911 40.4792 360.078 41.5833 360.078 42.875C360.078 43.875 359.994 44.8125 359.828 45.6875C359.661 46.5625 359.348 47.3333 358.89 48C358.432 48.6667 357.765 49.2083 356.89 49.625C356.015 50 354.89 50.1875 353.515 50.1875C352.223 50.1875 350.911 50.125 349.578 50C348.286 49.8333 346.953 49.7292 345.578 49.6875L338.015 49.75L338.453 99.0625C340.161 98.7708 341.661 98.5 342.953 98.25C344.244 98 345.453 97.75 346.578 97.5C347.703 97.25 348.807 96.9583 349.89 96.625C350.973 96.2917 352.161 95.875 353.453 95.375C354.161 95 354.994 94.625 355.953 94.25C356.911 93.8333 357.911 93.625 358.953 93.625C360.994 93.625 362.598 94.3333 363.765 95.75C364.932 97.125 365.515 98.9375 365.515 101.188C365.515 101.771 365.369 102.417 365.078 103.125C364.828 103.833 364.432 104.542 363.89 105.25C363.348 105.917 362.64 106.542 361.765 107.125C360.932 107.667 359.932 108.062 358.765 108.312C357.515 108.562 356.078 108.875 354.453 109.25C352.828 109.625 351.119 110.021 349.328 110.438C347.536 110.854 345.744 111.271 343.953 111.688C342.161 112.104 340.473 112.458 338.89 112.75C337.307 113.083 335.911 113.354 334.703 113.562C333.494 113.771 332.578 113.854 331.953 113.812C331.203 113.812 330.369 113.708 329.453 113.5C328.578 113.333 327.765 113 327.015 112.5C326.265 112.042 325.64 111.396 325.14 110.562C324.682 109.688 324.453 108.583 324.453 107.25L324.703 93.875Z" fill="#010101"/>
</svg>
