<svg width="844" height="126" viewBox="0 0 844 126" fill="none" xmlns="http://www.w3.org/2000/svg">
<path d="M40.472 124.792C38.5093 124.792 36.9733 124.408 35.864 123.64C34.84 122.872 34.0293 121.549 33.432 119.672L1.048 6.77599C0.706667 5.58133 0.792 4.55733 1.304 3.70399C1.90133 2.85066 3.13867 2.12533 5.016 1.52799C6.72267 0.930662 8.13067 0.759995 9.24 1.01599C10.4347 1.18666 11.2027 1.99733 11.544 3.448L40.728 107L73.112 5.62399C73.624 3.91733 74.3493 2.72266 75.288 2.03999C76.312 1.35733 77.7627 1.01599 79.64 1.01599C81.6027 1.01599 83.0533 1.35733 83.992 2.03999C85.016 2.72266 85.784 3.91733 86.296 5.62399L118.68 106.872L147.864 3.448C148.291 1.99733 149.059 1.18666 150.168 1.01599C151.363 0.759995 152.771 0.930662 154.392 1.52799C156.269 2.12533 157.464 2.85066 157.976 3.70399C158.573 4.55733 158.701 5.58133 158.36 6.77599L125.848 119.672C125.251 121.549 124.397 122.872 123.288 123.64C122.264 124.408 120.728 124.792 118.68 124.792C116.632 124.792 115.096 124.408 114.072 123.64C113.133 122.872 112.323 121.549 111.64 119.672L79.64 18.936L47.64 119.672C47.0427 121.549 46.1893 122.872 45.08 123.64C44.056 124.408 42.52 124.792 40.472 124.792ZM194.38 125.176C186.871 125.176 180.471 123.811 175.18 121.08C169.975 118.349 166.007 114.467 163.276 109.432C160.545 104.397 159.18 98.5093 159.18 91.768C159.18 86.648 159.905 81.9547 161.356 77.688C162.892 73.4213 165.025 69.7093 167.756 66.552C170.487 63.3947 173.729 60.9627 177.484 59.256C181.239 57.464 185.335 56.568 189.772 56.568C193.612 56.568 196.983 57.208 199.884 58.488C202.871 59.6827 205.175 61.56 206.796 64.12C208.417 66.5947 209.228 69.752 209.228 73.592C209.228 76.8347 208.588 79.7787 207.308 82.424C206.028 85.0693 204.193 87.416 201.804 89.464C199.5 91.4267 196.727 93.0907 193.484 94.456C190.241 95.736 186.615 96.7173 182.604 97.4C178.593 98.0827 174.327 98.4667 169.804 98.552V89.592C172.364 89.592 174.967 89.4213 177.612 89.08C180.257 88.6533 182.775 88.056 185.164 87.288C187.639 86.52 189.815 85.5387 191.692 84.344C193.655 83.064 195.191 81.6133 196.3 79.992C197.409 78.3707 197.964 76.536 197.964 74.488C197.964 71.7573 197.153 69.7947 195.532 68.6C193.911 67.4053 191.735 66.808 189.004 66.808C186.444 66.808 184.055 67.4053 181.836 68.6C179.617 69.7093 177.655 71.288 175.948 73.336C174.327 75.384 173.004 77.816 171.98 80.632C171.041 83.448 170.572 86.52 170.572 89.848C170.572 95.5653 171.553 100.387 173.516 104.312C175.564 108.152 178.38 111.053 181.964 113.016C185.548 114.893 189.687 115.832 194.38 115.832C195.66 115.832 196.599 116.301 197.196 117.24C197.793 118.179 198.092 119.288 198.092 120.568C198.092 121.763 197.793 122.829 197.196 123.768C196.599 124.707 195.66 125.176 194.38 125.176ZM194.288 125.176C193.52 125.176 192.923 124.707 192.496 123.768C192.069 122.829 191.856 121.763 191.856 120.568C191.856 119.288 192.069 118.179 192.496 117.24C192.923 116.301 193.52 115.832 194.288 115.832C198.469 115.832 202.437 115.277 206.192 114.168C209.947 113.059 213.403 111.523 216.56 109.56C219.717 107.597 222.448 105.251 224.752 102.52C227.141 99.7893 229.019 96.8453 230.384 93.688C230.725 92.7493 231.408 92.3653 232.432 92.536C233.541 92.6213 234.523 93.0053 235.376 93.688C236.315 94.3707 236.613 95.1813 236.272 96.12C234.821 100.387 232.731 104.312 230 107.896C227.269 111.395 224.027 114.467 220.272 117.112C216.603 119.672 212.592 121.635 208.24 123C203.803 124.451 199.152 125.176 194.288 125.176ZM246 125.176C243.099 125.176 240.581 124.749 238.448 123.896C236.315 123.128 234.565 121.933 233.2 120.312C231.835 118.605 230.811 116.515 230.128 114.04C229.531 111.48 229.232 108.493 229.232 105.08V4.34399C229.232 3.23466 229.659 2.42399 230.512 1.91199C231.451 1.31466 232.816 1.01599 234.608 1.01599C236.485 1.01599 237.893 1.31466 238.832 1.91199C239.771 2.42399 240.24 3.23466 240.24 4.34399V105.08C240.24 108.92 240.795 111.651 241.904 113.272C243.099 114.808 245.275 115.576 248.432 115.576C249.627 115.576 250.523 116.088 251.12 117.112C251.717 118.051 251.931 119.16 251.76 120.44C251.675 121.635 251.163 122.701 250.224 123.64C249.285 124.664 247.877 125.176 246 125.176ZM245.9 125.176C244.705 125.176 243.852 124.664 243.34 123.64C242.743 122.701 242.529 121.635 242.7 120.44C242.785 119.16 243.297 118.051 244.236 117.112C245.175 116.088 246.54 115.576 248.332 115.576C250.892 115.576 253.196 115.235 255.244 114.552C257.207 113.869 258.913 112.845 260.364 111.48C261.815 110.115 262.967 108.408 263.82 106.36C264.759 104.312 265.399 101.923 265.74 99.192C265.911 97.912 266.551 97.1013 267.66 96.76C268.769 96.3333 269.836 96.3333 270.86 96.76C271.969 97.1013 272.439 97.912 272.268 99.192C271.927 103.715 271.031 107.64 269.58 110.968C268.129 114.211 266.252 116.899 263.948 119.032C261.644 121.08 258.956 122.616 255.884 123.64C252.897 124.664 249.569 125.176 245.9 125.176ZM301.068 125.176C290.06 125.176 281.313 122.189 274.828 116.216C268.343 110.243 265.1 101.837 265.1 91C265.1 85.9653 265.825 81.3573 267.276 77.176C268.812 72.9947 270.903 69.368 273.548 66.296C276.193 63.224 279.308 60.8347 282.892 59.128C286.561 57.4213 290.572 56.568 294.924 56.568C298.849 56.568 302.86 57.4213 306.956 59.128C311.052 60.8347 314.636 63.5653 317.708 67.32C318.647 68.5147 318.988 69.5387 318.732 70.392C318.476 71.16 317.879 72.056 316.94 73.08C315.831 74.1893 314.807 74.872 313.868 75.128C312.929 75.384 311.948 75.0853 310.924 74.232C308.535 72.2693 306.188 70.5627 303.884 69.112C301.665 67.576 298.679 66.808 294.924 66.808C292.108 66.808 289.548 67.3627 287.244 68.472C284.94 69.5813 282.977 71.2027 281.356 73.336C279.82 75.4693 278.625 78.0293 277.772 81.016C276.919 83.9173 276.492 87.2453 276.492 91C276.492 96.12 277.473 100.515 279.436 104.184C281.484 107.853 284.343 110.669 288.012 112.632C291.767 114.595 296.119 115.576 301.068 115.576C302.263 115.576 303.159 116.088 303.756 117.112C304.439 118.051 304.78 119.16 304.78 120.44C304.78 121.635 304.481 122.701 303.884 123.64C303.287 124.664 302.348 125.176 301.068 125.176ZM300.832 125.176C300.064 125.176 299.509 124.664 299.168 123.64C298.741 122.701 298.528 121.635 298.528 120.44C298.528 119.16 298.741 118.051 299.168 117.112C299.595 116.088 300.192 115.576 300.96 115.576C305.653 115.576 310.091 114.68 314.272 112.888C318.368 111.096 322.08 108.451 325.408 104.952C328.736 101.453 331.509 97.1013 333.728 91.896C334.155 91.128 334.88 90.872 335.904 91.128C337.013 91.2987 337.995 91.768 338.848 92.536C339.787 93.304 340.085 94.1147 339.744 94.968C337.269 101.709 333.984 107.341 329.888 111.864C325.877 116.301 321.397 119.629 316.448 121.848C311.413 124.067 306.208 125.176 300.832 125.176ZM363.424 125.432C357.707 125.432 352.587 123.939 348.064 120.952C343.627 117.965 340.128 113.912 337.568 108.792C335.008 103.587 333.728 97.656 333.728 91C333.728 85.9653 334.453 81.3573 335.904 77.176C337.355 72.9947 339.403 69.368 342.048 66.296C344.779 63.224 347.936 60.8347 351.52 59.128C355.104 57.4213 359.072 56.568 363.424 56.568C369.141 56.568 374.219 58.0613 378.656 61.048C383.093 63.9493 386.592 68.0027 389.152 73.208C391.712 78.4133 392.992 84.344 392.992 91C392.992 95.0107 392.523 98.7653 391.584 102.264C390.645 105.763 389.28 108.92 387.488 111.736C385.781 114.552 383.691 116.984 381.216 119.032C378.827 121.08 376.096 122.659 373.024 123.768C370.037 124.877 366.837 125.432 363.424 125.432ZM363.424 115.192C366.24 115.192 368.757 114.637 370.976 113.528C373.28 112.419 375.2 110.797 376.736 108.664C378.357 106.531 379.595 103.971 380.448 100.984C381.301 97.9973 381.728 94.6693 381.728 91C381.728 86.0507 381.003 81.784 379.552 78.2C378.101 74.5307 376.011 71.7147 373.28 69.752C370.549 67.7893 367.264 66.808 363.424 66.808C360.608 66.808 358.048 67.3627 355.744 68.472C353.44 69.5813 351.477 71.2027 349.856 73.336C348.32 75.4693 347.125 78.0293 346.272 81.016C345.419 83.9173 344.992 87.2453 344.992 91C344.992 95.9493 345.717 100.259 347.168 103.928C348.704 107.512 350.837 110.285 353.568 112.248C356.299 114.211 359.584 115.192 363.424 115.192ZM390.123 74.488C389.184 74.488 388.032 74.2747 386.667 73.848C385.216 73.4213 383.723 72.824 382.187 72.056C380.651 71.288 379.115 70.4347 377.579 69.496C376.214 68.6427 375.36 67.704 375.019 66.68C374.678 65.5707 374.678 64.5467 375.019 63.608C375.36 62.6693 375.872 61.9867 376.555 61.56C377.238 61.048 377.878 61.0053 378.475 61.432C381.035 62.7973 383.254 63.8213 385.131 64.504C387.008 65.1013 388.63 65.4 389.995 65.4C392.043 65.4 393.792 64.9733 395.243 64.12C396.608 63.2667 397.974 62.328 399.339 61.304C400.619 60.1947 402.027 59.2133 403.563 58.36C405.099 57.5067 407.019 57.08 409.323 57.08C410.347 57.08 411.115 57.592 411.627 58.616C412.139 59.5547 412.395 60.664 412.395 61.944C412.395 63.1387 412.096 64.248 411.499 65.272C410.987 66.2107 410.134 66.68 408.939 66.68C407.232 66.68 405.739 67.064 404.459 67.832C403.179 68.6 401.899 69.5387 400.619 70.648C399.254 71.672 397.76 72.568 396.139 73.336C394.518 74.104 392.512 74.488 390.123 74.488ZM421.483 124.92C419.691 124.92 418.326 124.621 417.387 124.024C416.534 123.512 416.107 122.701 416.107 121.592V75.768C416.107 72.184 415.595 69.7947 414.571 68.6C413.547 67.32 411.712 66.68 409.067 66.68C407.702 66.68 406.635 66.2107 405.867 65.272C405.184 64.248 404.843 63.1387 404.843 61.944C404.843 60.664 405.184 59.5547 405.867 58.616C406.635 57.592 407.787 57.08 409.323 57.08C411.798 57.08 413.974 57.3787 415.851 57.976C417.728 58.488 419.35 59.256 420.715 60.28C422.08 61.304 423.19 62.584 424.043 64.12C424.982 65.5707 425.664 67.192 426.091 68.984L426.219 69.496C427.584 67.0213 429.12 64.9733 430.827 63.352C432.534 61.7307 434.283 60.408 436.075 59.384C437.952 58.36 439.83 57.6347 441.707 57.208C443.584 56.7813 445.334 56.568 446.955 56.568C451.307 56.568 455.19 57.3787 458.603 59C462.016 60.6213 464.704 63.1813 466.667 66.68C468.715 70.0933 469.739 74.616 469.739 80.248V121.592C469.739 122.701 469.27 123.512 468.331 124.024C467.392 124.621 465.984 124.92 464.107 124.92C462.23 124.92 460.822 124.621 459.883 124.024C459.03 123.512 458.603 122.701 458.603 121.592V81.272C458.603 78.2 458.176 75.5973 457.323 73.464C456.47 71.2453 455.062 69.5813 453.099 68.472C451.222 67.3627 448.662 66.808 445.419 66.808C443.883 66.808 442.304 67.064 440.683 67.576C439.062 68.0027 437.398 68.7707 435.691 69.88C434.07 70.9893 432.534 72.44 431.083 74.232C429.632 76.024 428.31 78.2427 427.115 80.888V121.592C427.115 122.701 426.646 123.512 425.707 124.024C424.768 124.621 423.36 124.92 421.483 124.92ZM517.867 125.176C514.966 125.176 512.448 124.749 510.315 123.896C508.182 123.128 506.432 121.933 505.067 120.312C503.702 118.605 502.678 116.515 501.995 114.04C501.398 111.48 501.099 108.493 501.099 105.08V81.272C501.099 78.2853 500.672 75.7253 499.819 73.592C498.966 71.3733 497.558 69.7093 495.595 68.6C493.718 67.4053 491.2 66.808 488.043 66.808C485.824 66.808 483.563 67.192 481.259 67.96C479.04 68.728 476.907 70.008 474.859 71.8C472.811 73.5067 470.976 75.8533 469.355 78.84C467.819 81.8267 466.582 85.496 465.643 89.848H462.315C462.315 84.984 462.955 80.5467 464.235 76.536C465.6 72.44 467.478 68.8987 469.867 65.912C472.342 62.9253 475.243 60.6213 478.571 59C481.899 57.3787 485.568 56.568 489.579 56.568C493.931 56.568 497.771 57.3787 501.099 59C504.512 60.6213 507.2 63.1813 509.163 66.68C511.126 70.0933 512.107 74.616 512.107 80.248V105.08C512.107 108.92 512.662 111.651 513.771 113.272C514.966 114.808 517.142 115.576 520.299 115.576C521.494 115.576 522.347 116.088 522.859 117.112C523.456 118.051 523.67 119.16 523.499 120.44C523.414 121.635 522.902 122.701 521.963 123.64C521.024 124.664 519.659 125.176 517.867 125.176ZM517.9 125.176C516.705 125.176 515.852 124.664 515.34 123.64C514.743 122.701 514.529 121.635 514.7 120.44C514.785 119.16 515.297 118.051 516.236 117.112C517.175 116.088 518.54 115.576 520.332 115.576C522.124 115.576 524.215 115.149 526.604 114.296C528.908 113.357 531.383 112.12 534.028 110.584C536.673 108.963 539.319 107.128 541.964 105.08C543.073 104.141 544.097 103.843 545.036 104.184C546.06 104.44 546.871 105.037 547.468 105.976C548.065 106.915 548.321 107.981 548.236 109.176C548.236 110.285 547.724 111.224 546.7 111.992C543.372 114.552 539.959 116.856 536.46 118.904C533.047 120.867 529.761 122.403 526.604 123.512C523.361 124.621 520.46 125.176 517.9 125.176ZM564.492 125.432C557.665 125.432 552.119 123.939 547.852 120.952C543.585 117.88 540.471 113.699 538.508 108.408C536.545 103.117 535.564 97.1013 535.564 90.36C535.564 85.24 536.247 80.632 537.612 76.536C538.977 72.3547 540.897 68.7707 543.372 65.784C545.847 62.7973 548.748 60.536 552.076 59C555.489 57.3787 559.201 56.568 563.212 56.568C566.711 56.568 569.74 57.2933 572.3 58.744C574.945 60.1947 576.993 62.2 578.444 64.76C579.98 67.2347 580.748 70.0507 580.748 73.208C580.748 75.768 580.279 78.328 579.34 80.888C578.401 83.448 576.823 86.136 574.604 88.952C572.385 91.768 569.399 94.7973 565.644 98.04C561.889 101.283 557.239 104.867 551.692 108.792L542.092 105.208C547.297 101.624 551.649 98.3813 555.148 95.48C558.647 92.5787 561.42 89.8907 563.468 87.416C565.601 84.9413 567.137 82.5947 568.076 80.376C569.015 78.1573 569.484 76.024 569.484 73.976C569.484 71.5867 568.801 69.7947 567.436 68.6C566.071 67.4053 564.279 66.808 562.06 66.808C560.012 66.808 558.049 67.4053 556.172 68.6C554.38 69.7093 552.759 71.288 551.308 73.336C549.943 75.384 548.833 77.816 547.98 80.632C547.212 83.448 546.828 86.52 546.828 89.848C546.828 95.5653 547.596 100.301 549.132 104.056C550.668 107.811 552.759 110.627 555.404 112.504C558.135 114.296 561.164 115.192 564.492 115.192C566.455 115.192 568.332 114.893 570.124 114.296C571.916 113.613 573.708 112.632 575.5 111.352C577.377 109.987 579.255 108.365 581.132 106.488C582.412 105.208 583.564 104.568 584.588 104.568C585.697 104.568 586.849 105.037 588.044 105.976C589.239 106.915 589.921 107.939 590.092 109.048C590.348 110.072 590.092 111.139 589.324 112.248C587.105 115.491 584.46 118.093 581.388 120.056C578.401 121.933 575.372 123.299 572.3 124.152C569.313 125.005 566.711 125.432 564.492 125.432ZM677.282 125.432C674.722 125.432 671.906 125.176 668.834 124.664C665.762 124.152 662.647 123.341 659.49 122.232C656.418 121.037 653.474 119.501 650.658 117.624C647.927 115.747 645.581 113.443 643.618 110.712C643.021 109.859 642.722 109.048 642.722 108.28C642.807 107.512 643.447 106.531 644.642 105.336C645.837 104.056 646.818 103.373 647.586 103.288C648.439 103.117 649.677 103.757 651.298 105.208C653.261 107.085 655.522 108.707 658.082 110.072C660.642 111.437 663.501 112.547 666.658 113.4C669.901 114.168 673.442 114.552 677.282 114.552C681.975 114.552 686.029 114.083 689.442 113.144C692.941 112.205 695.842 110.797 698.146 108.92C700.45 106.957 702.157 104.525 703.266 101.624C704.461 98.6373 705.058 95.1387 705.058 91.128C705.058 87.8 704.461 84.9413 703.266 82.552C702.157 80.1627 700.493 78.1147 698.274 76.408C696.141 74.616 693.581 73.0373 690.594 71.672C687.607 70.2213 684.279 68.9413 680.61 67.832C677.453 66.808 674.253 65.656 671.01 64.376C667.767 63.0107 664.653 61.3893 661.666 59.512C658.765 57.5493 656.162 55.2453 653.858 52.6C651.639 49.9547 649.847 46.8827 648.482 43.384C647.202 39.8853 646.562 35.7893 646.562 31.096C646.562 26.232 647.415 21.9653 649.122 18.296C650.829 14.6267 653.218 11.512 656.29 8.952C659.447 6.30666 663.117 4.34399 667.298 3.064C671.565 1.69866 676.258 1.01599 681.378 1.01599C685.901 1.01599 690.039 1.65599 693.794 2.936C697.634 4.13066 701.175 5.79466 704.418 7.92799C707.661 9.97599 710.733 12.3227 713.634 14.968C714.573 15.8213 714.957 16.7173 714.786 17.656C714.615 18.5093 714.061 19.4053 713.122 20.344C712.098 21.4533 711.074 22.2213 710.05 22.648C709.111 23.0747 708.173 22.9467 707.234 22.264C704.845 20.3013 702.37 18.552 699.81 17.016C697.25 15.3947 694.434 14.1573 691.362 13.304C688.375 12.3653 685.047 11.896 681.378 11.896C677.709 11.896 674.466 12.3227 671.65 13.176C668.834 13.944 666.402 15.1387 664.354 16.76C662.391 18.296 660.898 20.3013 659.874 22.776C658.935 25.1653 658.466 27.9387 658.466 31.096C658.466 34.8507 659.063 38.0933 660.258 40.824C661.453 43.4693 663.159 45.7733 665.378 47.736C667.682 49.6987 670.37 51.3627 673.442 52.728C676.514 54.0933 679.842 55.3307 683.426 56.44C687.181 57.6347 691.021 59.0853 694.946 60.792C698.957 62.4133 702.583 64.5467 705.826 67.192C709.154 69.752 711.799 72.952 713.762 76.792C715.81 80.632 716.834 85.4107 716.834 91.128C716.834 96.76 715.938 101.709 714.146 105.976C712.354 110.243 709.751 113.827 706.338 116.728C702.925 119.544 698.743 121.677 693.794 123.128C688.93 124.664 683.426 125.432 677.282 125.432ZM754.925 125.176C752.024 125.176 749.506 124.749 747.373 123.896C745.24 123.128 743.49 121.933 742.125 120.312C740.76 118.605 739.736 116.515 739.053 114.04C738.456 111.48 738.157 108.493 738.157 105.08V60.408C738.157 59.2987 738.584 58.488 739.437 57.976C740.376 57.3787 741.741 57.08 743.533 57.08C745.41 57.08 746.818 57.3787 747.757 57.976C748.696 58.488 749.165 59.2987 749.165 60.408V105.08C749.165 108.92 749.72 111.651 750.829 113.272C752.024 114.808 754.2 115.576 757.357 115.576C758.552 115.576 759.448 116.088 760.045 117.112C760.642 118.051 760.856 119.16 760.685 120.44C760.6 121.635 760.088 122.701 759.149 123.64C758.21 124.664 756.802 125.176 754.925 125.176ZM743.789 37.368C741.4 37.368 739.565 36.728 738.285 35.448C737.09 34.0827 736.493 32.0773 736.493 29.432C736.493 26.7013 737.09 24.6533 738.285 23.288C739.565 21.9227 741.4 21.24 743.789 21.24C746.093 21.24 747.842 21.9227 749.037 23.288C750.232 24.6533 750.829 26.7013 750.829 29.432C750.914 32.0773 750.317 34.0827 749.037 35.448C747.842 36.728 746.093 37.368 743.789 37.368ZM754.9 125.176C754.132 125.176 753.577 124.664 753.236 123.64C752.895 122.701 752.809 121.635 752.98 120.44C753.151 119.16 753.577 118.051 754.26 117.112C754.943 116.088 755.924 115.576 757.204 115.576C759.252 115.576 761.087 115.021 762.708 113.912C764.244 112.803 765.609 111.139 766.804 108.92C767.999 106.701 769.023 103.971 769.876 100.728C770.729 97.4853 771.412 93.688 771.924 89.336C772.692 83.0213 773.673 77.816 774.868 73.72C776.148 69.5387 777.641 66.2533 779.348 63.864C781.055 61.3893 782.975 59.64 785.108 58.616C787.241 57.592 789.588 57.08 792.148 57.08C792.916 57.08 793.471 57.592 793.812 58.616C794.239 59.5547 794.409 60.664 794.324 61.944C794.324 63.1387 794.111 64.248 793.684 65.272C793.257 66.2107 792.66 66.68 791.892 66.68C790.868 66.68 789.844 66.9787 788.82 67.576C787.881 68.088 786.985 69.112 786.132 70.648C785.279 72.0987 784.468 74.232 783.7 77.048C783.017 79.7787 782.377 83.3627 781.78 87.8C780.841 95.48 779.561 101.795 777.94 106.744C776.404 111.608 774.527 115.405 772.308 118.136C770.175 120.781 767.657 122.616 764.756 123.64C761.855 124.664 758.569 125.176 754.9 125.176ZM791.508 124.92C789.716 124.92 788.351 124.621 787.412 124.024C786.559 123.512 786.132 122.701 786.132 121.592V75.768C786.132 72.184 785.62 69.7947 784.596 68.6C783.572 67.32 781.737 66.68 779.092 66.68C777.812 66.68 776.873 66.2107 776.276 65.272C775.679 64.248 775.38 63.1387 775.38 61.944C775.38 60.664 775.721 59.5547 776.404 58.616C777.087 57.592 778.068 57.08 779.348 57.08C781.737 57.08 783.871 57.336 785.748 57.848C787.711 58.36 789.375 59.1707 790.74 60.28C792.191 61.3893 793.385 62.7547 794.324 64.376C795.263 65.9973 795.945 67.9173 796.372 70.136L796.5 70.776C797.439 68.5573 798.548 66.5947 799.828 64.888C801.108 63.096 802.473 61.6027 803.924 60.408C805.375 59.128 806.868 58.1893 808.404 57.592C810.025 56.9093 811.604 56.568 813.14 56.568C814.335 56.568 815.359 56.8667 816.212 57.464C817.151 58.0613 817.62 59.384 817.62 61.432C817.62 63.8213 817.833 65.8267 818.26 67.448C818.772 69.0693 819.455 70.3067 820.308 71.16C821.247 71.928 822.313 72.312 823.508 72.312C825.641 72.312 827.86 71.3307 830.164 69.368C832.468 67.4053 834.687 65.2293 836.82 62.84C837.588 61.9867 838.441 61.688 839.38 61.944C840.319 62.1147 841.172 62.6267 841.94 63.48C842.793 64.3333 843.348 65.272 843.604 66.296C843.86 67.2347 843.689 68.0453 843.092 68.728C840.276 72.1413 837.161 75.0427 833.748 77.432C830.335 79.8213 826.921 81.016 823.508 81.016C821.204 81.016 819.028 80.504 816.98 79.48C815.017 78.456 813.353 76.92 811.988 74.872C810.708 72.824 809.855 70.3493 809.428 67.448C808.148 67.96 806.911 68.7707 805.716 69.88C804.607 70.9893 803.497 72.3547 802.388 73.976C801.364 75.512 800.383 77.304 799.444 79.352C798.591 81.3147 797.823 83.4053 797.14 85.624V121.592C797.14 122.701 796.671 123.512 795.732 124.024C794.793 124.621 793.385 124.92 791.508 124.92Z" fill="#0A0A0A"/>
</svg>
