<svg xmlns="http://www.w3.org/2000/svg" version="1.1" xmlns:xlink="http://www.w3.org/1999/xlink" xmlns:svgjs="http://svgjs.com/svgjs" viewBox="0 0 820 820" fill="#ffffff" width="1000" height="1000"><rect width="820" height="820" fill="#ffffff" x="0" y="0"/><circle r="16" cx="346" cy="26" fill="#000000" opacity="1"/><circle r="16" cx="442" cy="26" fill="#000000" opacity="1"/><circle r="16" cx="474" cy="26" fill="#000000" opacity="1"/><circle r="16" cx="506" cy="26" fill="#000000" opacity="1"/><circle r="16" cx="314" cy="58" fill="#000000" opacity="1"/><circle r="16" cx="442" cy="58" fill="#000000" opacity="1"/><circle r="16" cx="506" cy="58" fill="#000000" opacity="1"/><circle r="16" cx="282" cy="90" fill="#000000" opacity="1"/><circle r="16" cx="378" cy="90" fill="#000000" opacity="1"/><circle r="16" cx="506" cy="90" fill="#000000" opacity="1"/><circle r="16" cx="314" cy="122" fill="#000000" opacity="1"/><circle r="16" cx="410" cy="122" fill="#000000" opacity="1"/><circle r="16" cx="474" cy="122" fill="#000000" opacity="1"/><circle r="16" cx="314" cy="154" fill="#000000" opacity="1"/><circle r="16" cx="410" cy="154" fill="#000000" opacity="1"/><circle r="16" cx="442" cy="154" fill="#000000" opacity="1"/><circle r="16" cx="474" cy="154" fill="#000000" opacity="1"/><circle r="16" cx="506" cy="154" fill="#000000" opacity="1"/><circle r="16" cx="538" cy="154" fill="#000000" opacity="1"/><circle r="16" cx="346" cy="186" fill="#000000" opacity="1"/><circle r="16" cx="378" cy="186" fill="#000000" opacity="1"/><circle r="16" cx="410" cy="186" fill="#000000" opacity="1"/><circle r="16" cx="474" cy="186" fill="#000000" opacity="1"/><circle r="16" cx="506" cy="186" fill="#000000" opacity="1"/><circle r="16" cx="538" cy="186" fill="#000000" opacity="1"/><circle r="16" cx="378" cy="250" fill="#000000" opacity="1"/><circle r="16" cx="442" cy="250" fill="#000000" opacity="1"/><circle r="16" cx="474" cy="250" fill="#000000" opacity="1"/><circle r="16" cx="26" cy="282" fill="#000000" opacity="1"/><circle r="16" cx="58" cy="282" fill="#000000" opacity="1"/><circle r="16" cx="90" cy="282" fill="#000000" opacity="1"/><circle r="16" cx="410" cy="282" fill="#000000" opacity="1"/><circle r="16" cx="442" cy="282" fill="#000000" opacity="1"/><circle r="16" cx="474" cy="282" fill="#000000" opacity="1"/><circle r="16" cx="570" cy="282" fill="#000000" opacity="1"/><circle r="16" cx="602" cy="282" fill="#000000" opacity="1"/><circle r="16" cx="730" cy="282" fill="#000000" opacity="1"/><circle r="16" cx="26" cy="314" fill="#000000" opacity="1"/><circle r="16" cx="58" cy="314" fill="#000000" opacity="1"/><circle r="16" cx="122" cy="314" fill="#000000" opacity="1"/><circle r="16" cx="250" cy="314" fill="#000000" opacity="1"/><circle r="16" cx="282" cy="314" fill="#000000" opacity="1"/><circle r="16" cx="314" cy="314" fill="#000000" opacity="1"/><circle r="16" cx="378" cy="314" fill="#000000" opacity="1"/><circle r="16" cx="410" cy="314" fill="#000000" opacity="1"/><circle r="16" cx="538" cy="314" fill="#000000" opacity="1"/><circle r="16" cx="602" cy="314" fill="#000000" opacity="1"/><circle r="16" cx="794" cy="314" fill="#000000" opacity="1"/><circle r="16" cx="26" cy="346" fill="#000000" opacity="1"/><circle r="16" cx="90" cy="346" fill="#000000" opacity="1"/><circle r="16" cx="122" cy="346" fill="#000000" opacity="1"/><circle r="16" cx="154" cy="346" fill="#000000" opacity="1"/><circle r="16" cx="186" cy="346" fill="#000000" opacity="1"/><circle r="16" cx="282" cy="346" fill="#000000" opacity="1"/><circle r="16" cx="346" cy="346" fill="#000000" opacity="1"/><circle r="16" cx="378" cy="346" fill="#000000" opacity="1"/><circle r="16" cx="410" cy="346" fill="#000000" opacity="1"/><circle r="16" cx="442" cy="346" fill="#000000" opacity="1"/><circle r="16" cx="602" cy="346" fill="#000000" opacity="1"/><circle r="16" cx="634" cy="346" fill="#000000" opacity="1"/><circle r="16" cx="666" cy="346" fill="#000000" opacity="1"/><circle r="16" cx="730" cy="346" fill="#000000" opacity="1"/><circle r="16" cx="762" cy="346" fill="#000000" opacity="1"/><circle r="16" cx="794" cy="346" fill="#000000" opacity="1"/><circle r="16" cx="58" cy="378" fill="#000000" opacity="1"/><circle r="16" cx="122" cy="378" fill="#000000" opacity="1"/><circle r="16" cx="314" cy="378" fill="#000000" opacity="1"/><circle r="16" cx="346" cy="378" fill="#000000" opacity="1"/><circle r="16" cx="410" cy="378" fill="#000000" opacity="1"/><circle r="16" cx="442" cy="378" fill="#000000" opacity="1"/><circle r="16" cx="474" cy="378" fill="#000000" opacity="1"/><circle r="16" cx="506" cy="378" fill="#000000" opacity="1"/><circle r="16" cx="538" cy="378" fill="#000000" opacity="1"/><circle r="16" cx="570" cy="378" fill="#000000" opacity="1"/><circle r="16" cx="602" cy="378" fill="#000000" opacity="1"/><circle r="16" cx="634" cy="378" fill="#000000" opacity="1"/><circle r="16" cx="762" cy="378" fill="#000000" opacity="1"/><circle r="16" cx="26" cy="410" fill="#000000" opacity="1"/><circle r="16" cx="58" cy="410" fill="#000000" opacity="1"/><circle r="16" cx="186" cy="410" fill="#000000" opacity="1"/><circle r="16" cx="250" cy="410" fill="#000000" opacity="1"/><circle r="16" cx="346" cy="410" fill="#000000" opacity="1"/><circle r="16" cx="378" cy="410" fill="#000000" opacity="1"/><circle r="16" cx="410" cy="410" fill="#000000" opacity="1"/><circle r="16" cx="538" cy="410" fill="#000000" opacity="1"/><circle r="16" cx="602" cy="410" fill="#000000" opacity="1"/><circle r="16" cx="634" cy="410" fill="#000000" opacity="1"/><circle r="16" cx="698" cy="410" fill="#000000" opacity="1"/><circle r="16" cx="762" cy="410" fill="#000000" opacity="1"/><circle r="16" cx="794" cy="410" fill="#000000" opacity="1"/><circle r="16" cx="58" cy="442" fill="#000000" opacity="1"/><circle r="16" cx="122" cy="442" fill="#000000" opacity="1"/><circle r="16" cx="186" cy="442" fill="#000000" opacity="1"/><circle r="16" cx="250" cy="442" fill="#000000" opacity="1"/><circle r="16" cx="282" cy="442" fill="#000000" opacity="1"/><circle r="16" cx="346" cy="442" fill="#000000" opacity="1"/><circle r="16" cx="378" cy="442" fill="#000000" opacity="1"/><circle r="16" cx="442" cy="442" fill="#000000" opacity="1"/><circle r="16" cx="538" cy="442" fill="#000000" opacity="1"/><circle r="16" cx="570" cy="442" fill="#000000" opacity="1"/><circle r="16" cx="602" cy="442" fill="#000000" opacity="1"/><circle r="16" cx="698" cy="442" fill="#000000" opacity="1"/><circle r="16" cx="794" cy="442" fill="#000000" opacity="1"/><circle r="16" cx="26" cy="474" fill="#000000" opacity="1"/><circle r="16" cx="90" cy="474" fill="#000000" opacity="1"/><circle r="16" cx="122" cy="474" fill="#000000" opacity="1"/><circle r="16" cx="186" cy="474" fill="#000000" opacity="1"/><circle r="16" cx="346" cy="474" fill="#000000" opacity="1"/><circle r="16" cx="474" cy="474" fill="#000000" opacity="1"/><circle r="16" cx="538" cy="474" fill="#000000" opacity="1"/><circle r="16" cx="570" cy="474" fill="#000000" opacity="1"/><circle r="16" cx="634" cy="474" fill="#000000" opacity="1"/><circle r="16" cx="730" cy="474" fill="#000000" opacity="1"/><circle r="16" cx="762" cy="474" fill="#000000" opacity="1"/><circle r="16" cx="794" cy="474" fill="#000000" opacity="1"/><circle r="16" cx="58" cy="506" fill="#000000" opacity="1"/><circle r="16" cx="122" cy="506" fill="#000000" opacity="1"/><circle r="16" cx="154" cy="506" fill="#000000" opacity="1"/><circle r="16" cx="282" cy="506" fill="#000000" opacity="1"/><circle r="16" cx="314" cy="506" fill="#000000" opacity="1"/><circle r="16" cx="378" cy="506" fill="#000000" opacity="1"/><circle r="16" cx="442" cy="506" fill="#000000" opacity="1"/><circle r="16" cx="474" cy="506" fill="#000000" opacity="1"/><circle r="16" cx="506" cy="506" fill="#000000" opacity="1"/><circle r="16" cx="538" cy="506" fill="#000000" opacity="1"/><circle r="16" cx="666" cy="506" fill="#000000" opacity="1"/><circle r="16" cx="762" cy="506" fill="#000000" opacity="1"/><circle r="16" cx="26" cy="538" fill="#000000" opacity="1"/><circle r="16" cx="90" cy="538" fill="#000000" opacity="1"/><circle r="16" cx="122" cy="538" fill="#000000" opacity="1"/><circle r="16" cx="250" cy="538" fill="#000000" opacity="1"/><circle r="16" cx="282" cy="538" fill="#000000" opacity="1"/><circle r="16" cx="346" cy="538" fill="#000000" opacity="1"/><circle r="16" cx="698" cy="538" fill="#000000" opacity="1"/><circle r="16" cx="282" cy="570" fill="#000000" opacity="1"/><circle r="16" cx="314" cy="570" fill="#000000" opacity="1"/><circle r="16" cx="506" cy="570" fill="#000000" opacity="1"/><circle r="16" cx="698" cy="570" fill="#000000" opacity="1"/><circle r="16" cx="762" cy="570" fill="#000000" opacity="1"/><circle r="16" cx="794" cy="570" fill="#000000" opacity="1"/><circle r="16" cx="282" cy="602" fill="#000000" opacity="1"/><circle r="16" cx="314" cy="602" fill="#000000" opacity="1"/><circle r="16" cx="442" cy="602" fill="#000000" opacity="1"/><circle r="16" cx="474" cy="602" fill="#000000" opacity="1"/><circle r="16" cx="506" cy="602" fill="#000000" opacity="1"/><circle r="16" cx="698" cy="602" fill="#000000" opacity="1"/><circle r="16" cx="762" cy="602" fill="#000000" opacity="1"/><circle r="16" cx="794" cy="602" fill="#000000" opacity="1"/><circle r="16" cx="282" cy="634" fill="#000000" opacity="1"/><circle r="16" cx="346" cy="634" fill="#000000" opacity="1"/><circle r="16" cx="442" cy="634" fill="#000000" opacity="1"/><circle r="16" cx="474" cy="634" fill="#000000" opacity="1"/><circle r="16" cx="698" cy="634" fill="#000000" opacity="1"/><circle r="16" cx="762" cy="634" fill="#000000" opacity="1"/><circle r="16" cx="794" cy="634" fill="#000000" opacity="1"/><circle r="16" cx="282" cy="666" fill="#000000" opacity="1"/><circle r="16" cx="698" cy="666" fill="#000000" opacity="1"/><circle r="16" cx="314" cy="698" fill="#000000" opacity="1"/><circle r="16" cx="410" cy="698" fill="#000000" opacity="1"/><circle r="16" cx="442" cy="698" fill="#000000" opacity="1"/><circle r="16" cx="538" cy="698" fill="#000000" opacity="1"/><circle r="16" cx="634" cy="698" fill="#000000" opacity="1"/><circle r="16" cx="666" cy="698" fill="#000000" opacity="1"/><circle r="16" cx="698" cy="698" fill="#000000" opacity="1"/><circle r="16" cx="730" cy="698" fill="#000000" opacity="1"/><circle r="16" cx="282" cy="730" fill="#000000" opacity="1"/><circle r="16" cx="314" cy="730" fill="#000000" opacity="1"/><circle r="16" cx="410" cy="730" fill="#000000" opacity="1"/><circle r="16" cx="506" cy="730" fill="#000000" opacity="1"/><circle r="16" cx="666" cy="730" fill="#000000" opacity="1"/><circle r="16" cx="794" cy="730" fill="#000000" opacity="1"/><circle r="16" cx="282" cy="762" fill="#000000" opacity="1"/><circle r="16" cx="378" cy="762" fill="#000000" opacity="1"/><circle r="16" cx="410" cy="762" fill="#000000" opacity="1"/><circle r="16" cx="442" cy="762" fill="#000000" opacity="1"/><circle r="16" cx="474" cy="762" fill="#000000" opacity="1"/><circle r="16" cx="506" cy="762" fill="#000000" opacity="1"/><circle r="16" cx="538" cy="762" fill="#000000" opacity="1"/><circle r="16" cx="570" cy="762" fill="#000000" opacity="1"/><circle r="16" cx="666" cy="762" fill="#000000" opacity="1"/><circle r="16" cx="698" cy="762" fill="#000000" opacity="1"/><circle r="16" cx="762" cy="762" fill="#000000" opacity="1"/><circle r="16" cx="282" cy="794" fill="#000000" opacity="1"/><circle r="16" cx="506" cy="794" fill="#000000" opacity="1"/><circle r="16" cx="538" cy="794" fill="#000000" opacity="1"/><circle r="16" cx="570" cy="794" fill="#000000" opacity="1"/><circle r="16" cx="634" cy="794" fill="#000000" opacity="1"/><circle r="16" cx="762" cy="794" fill="#000000" opacity="1"/><circle r="16" cx="794" cy="794" fill="#000000" opacity="1"/><svg xmlns="http://www.w3.org/2000/svg" version="1.1" xmlns:xlink="http://www.w3.org/1999/xlink" xmlns:svgjs="http://svgjs.com/svgjs" width="224" height="224" viewBox="0 0 224 224" x="10" y="10"><path d="   M56 0 L168 0 A56 56 0 0 1 224 56 L224 168 A56 56 0 0 1 168 224 L56 224  A56 56 0 0 1 0 168 L0 56 A56 56 0 0 1 56 0 Z  M56 32 A24 24 0 0 0 32 56  L32 168 A24 24 0 0 0 56 192 L168 192 A24 24 0 0 0 192 168 L192 56 A24 24 0 0 0 168 32 L56 32 Z" fill="#000000" stroke-width="10"/></svg><svg xmlns="http://www.w3.org/2000/svg" version="1.1" xmlns:xlink="http://www.w3.org/1999/xlink" xmlns:svgjs="http://svgjs.com/svgjs" width="224" height="224" viewBox="0 0 224 224" x="586" y="10"><path d="   M56 0 L168 0 A56 56 0 0 1 224 56 L224 168 A56 56 0 0 1 168 224 L56 224  A56 56 0 0 1 0 168 L0 56 A56 56 0 0 1 56 0 Z  M56 32 A24 24 0 0 0 32 56  L32 168 A24 24 0 0 0 56 192 L168 192 A24 24 0 0 0 192 168 L192 56 A24 24 0 0 0 168 32 L56 32 Z" fill="#000000" stroke-width="10"/></svg><svg xmlns="http://www.w3.org/2000/svg" version="1.1" xmlns:xlink="http://www.w3.org/1999/xlink" xmlns:svgjs="http://svgjs.com/svgjs" width="224" height="224" viewBox="0 0 224 224" x="10" y="586"><path d="   M56 0 L168 0 A56 56 0 0 1 224 56 L224 168 A56 56 0 0 1 168 224 L56 224  A56 56 0 0 1 0 168 L0 56 A56 56 0 0 1 56 0 Z  M56 32 A24 24 0 0 0 32 56  L32 168 A24 24 0 0 0 56 192 L168 192 A24 24 0 0 0 192 168 L192 56 A24 24 0 0 0 168 32 L56 32 Z" fill="#000000" stroke-width="10"/></svg><svg xmlns="http://www.w3.org/2000/svg" version="1.1" xmlns:xlink="http://www.w3.org/1999/xlink" xmlns:svgjs="http://svgjs.com/svgjs" width="96" height="96" x="74" y="74"><rect width="96" height="96" fill="#000000" rx="24" ry="24"/></svg><svg xmlns="http://www.w3.org/2000/svg" version="1.1" xmlns:xlink="http://www.w3.org/1999/xlink" xmlns:svgjs="http://svgjs.com/svgjs" width="96" height="96" x="650" y="74"><rect width="96" height="96" fill="#000000" rx="24" ry="24"/></svg><svg xmlns="http://www.w3.org/2000/svg" version="1.1" xmlns:xlink="http://www.w3.org/1999/xlink" xmlns:svgjs="http://svgjs.com/svgjs" width="96" height="96" x="74" y="650"><rect width="96" height="96" fill="#000000" rx="24" ry="24"/></svg><circle r="16" cx="282" cy="218" fill="#000000" opacity="1"/><circle r="16" cx="218" cy="282" fill="#000000" opacity="1"/><circle r="16" cx="346" cy="218" fill="#000000" opacity="1"/><circle r="16" cx="218" cy="346" fill="#000000" opacity="1"/><circle r="16" cx="410" cy="218" fill="#000000" opacity="1"/><circle r="16" cx="218" cy="410" fill="#000000" opacity="1"/><circle r="16" cx="474" cy="218" fill="#000000" opacity="1"/><circle r="16" cx="218" cy="474" fill="#000000" opacity="1"/><circle r="16" cx="538" cy="218" fill="#000000" opacity="1"/><circle r="16" cx="218" cy="538" fill="#000000" opacity="1"/><circle r="16" cx="538" cy="538" fill="#000000" opacity="1"/><circle r="16" cx="538" cy="570" fill="#000000" opacity="1"/><circle r="16" cx="538" cy="602" fill="#000000" opacity="1"/><circle r="16" cx="538" cy="634" fill="#000000" opacity="1"/><circle r="16" cx="666" cy="570" fill="#000000" opacity="1"/><circle r="16" cx="666" cy="602" fill="#000000" opacity="1"/><circle r="16" cx="666" cy="634" fill="#000000" opacity="1"/><circle r="16" cx="666" cy="666" fill="#000000" opacity="1"/><circle r="16" cx="570" cy="538" fill="#000000" opacity="1"/><circle r="16" cx="602" cy="538" fill="#000000" opacity="1"/><circle r="16" cx="634" cy="538" fill="#000000" opacity="1"/><circle r="16" cx="666" cy="538" fill="#000000" opacity="1"/><circle r="16" cx="538" cy="666" fill="#000000" opacity="1"/><circle r="16" cx="570" cy="666" fill="#000000" opacity="1"/><circle r="16" cx="602" cy="666" fill="#000000" opacity="1"/><circle r="16" cx="634" cy="666" fill="#000000" opacity="1"/><circle r="16" cx="602" cy="602" fill="#000000" opacity="1"/></svg>